<?xml version="1.0" encoding="utf-8"?>
<!-- Generator: Adobe Illustrator 24.2.3, SVG Export Plug-In . SVG Version: 6.00 Build 0)  -->
<svg version="1.1" id="e7334088-53de-4589-99a2-090044ddfc90"
	 xmlns="http://www.w3.org/2000/svg" xmlns:xlink="http://www.w3.org/1999/xlink" x="0px" y="0px" viewBox="0 0 366.7 450.1"
	 style="enable-background:new 0 0 366.7 450.1;" xml:space="preserve">
<style type="text/css">
	.st0{fill:#FFCA0F;}
	.st1{fill:#FC4D56;}
	.st2{fill:#E6E6E6;}
	.st3{fill:#48BB78;}
	.st4{fill:#438DFE;}
	.st5{fill:#E8BEAC;}
	.st6{fill:#968A62;}
	.st7{fill:#FBBEBE;}
	.st8{fill:#3F3D56;}
	.st9{fill:#FFFFFF;}
	.st10{fill:#514F4F;}
	.st11{fill:#A0A0A0;}
	.st12{fill:#9B835C;}
	.st13{fill:#D46C2C;}
	.st14{fill:#D56D2E;}
</style>
<g>
	<ellipse class="st0" cx="82.2" cy="123.3" rx="9.1" ry="8.2"/>
	<ellipse class="st0" cx="130.5" cy="82.5" rx="9.1" ry="8.2"/>
	<ellipse class="st0" cx="165.4" cy="49.6" rx="9.1" ry="8.2"/>
	<ellipse class="st1" cx="42.4" cy="206.2" rx="9.1" ry="8.2"/>
	<ellipse class="st1" cx="91.3" cy="161.2" rx="9.1" ry="8.2"/>
	<ellipse class="st1" cx="141.8" cy="117.2" rx="9.1" ry="8.2"/>
	<ellipse class="st1" cx="207.1" cy="57.8" rx="9.1" ry="8.2"/>
	<ellipse class="st1" cx="223.6" cy="41.3" rx="9.1" ry="8.2"/>
	<ellipse class="st2" cx="18.3" cy="273.7" rx="9.1" ry="8.2"/>
	<ellipse class="st2" cx="33.9" cy="258.1" rx="9.1" ry="8.2"/>
	<ellipse class="st2" cx="51.5" cy="243.7" rx="9.1" ry="8.2"/>
	<ellipse class="st2" cx="265.7" cy="49.6" rx="9.1" ry="8.2"/>
	<ellipse class="st2" cx="297.9" cy="19.2" rx="9.1" ry="8.2"/>
	<ellipse class="st3" cx="107.9" cy="235.5" rx="9.1" ry="8.2"/>
	<ellipse class="st3" cx="158.6" cy="189.7" rx="9.1" ry="8.2"/>
	<ellipse class="st3" cx="241.9" cy="117.2" rx="9.1" ry="8.2"/>
	<ellipse class="st3" cx="307" cy="57.8" rx="9.1" ry="8.2"/>
	<ellipse class="st4" cx="149.5" cy="242.5" rx="9.1" ry="8.2"/>
	<ellipse class="st4" cx="198" cy="197.9" rx="9.1" ry="8.2"/>
	<ellipse class="st4" cx="247.5" cy="153" rx="9.1" ry="8.2"/>
	<polygon class="st2" points="316.1,0 319.9,3.3 13,280.4 10.1,277.3 	"/>
	<polygon class="st1" points="22.7,220.4 27.4,222.4 225.7,42.8 220.4,41.3 	"/>
	<polygon class="st1" points="28.9,250.3 33.3,249 27.4,222.4 22.7,220.4 	"/>
	<polygon class="st3" points="91.3,248.6 91.3,254 307,59.7 303,56.6 	"/>
	<polygon class="st3" points="61.2,243.3 59.8,248.2 91.3,254 91.3,248.6 	"/>
	<polygon class="st4" points="155,241 245.9,158.4 241.9,156.3 151.7,238.9 	"/>
	<polygon class="st4" points="117.8,235.8 116.4,240.1 141.6,244.7 142.3,240.2 	"/>
	<polygon class="st0" points="159.4,51.8 162.9,54.4 88.4,122.2 84.7,119.2 	"/>
	<polygon class="st0" points="86.5,153 92,152.3 86.5,128.6 81.5,129.5 	"/>
</g>
<circle id="fd4e5ab9-ffc8-4bbb-9267-3af70c31dae1" class="st5" cx="176" cy="151.7" r="51.9"/>
<path id="a8c9bbe2-1461-49cf-8211-f8d251166dc5" class="st6" d="M224.4,106.5c-7.8-12.4-19.9-21.5-34.1-25.6l-6.4,4.6v-5.9
	c-3.4-0.5-6.9-0.7-10.3-0.6l-5.5,4.9v-4.5c-16.4,2-31.3,10.7-40.9,23.9c-11.9,16.9-13.9,40.5-2.2,57.5c3.2-9.7,7.1-18.9,10.4-28.6
	c2.5,0.3,5.1,0.4,7.6,0l3.9-9l1.1,8.6c12.1-1,30.2-3.3,41.7-5.4l-1.1-6.6l6.7,5.5c3.5-0.8,5.6-1.5,5.5-2.1
	c8.6,13.6,19,22.3,27.6,35.8C231.6,139.9,235.4,124,224.4,106.5z"/>
<path class="st3" d="M287.5,285.1c-1.8-10.7-3.6-21.7-8.6-31.3c-3.3-6.3-8.5-12.4-15.5-13.6c-1.4-0.1-2.7-0.4-4-0.9
	c-2.1-1-29.7-16.8-34.1-19.5c-3.8-2.4-9.7-6.7-12.7-6.7c-3-0.1-14.6,2.6-59.8-0.9c-7.6,3-15,6.7-22,10.8c-0.1-0.1-46.9,25-48.6,24.9
	c-3.3-0.1-6.4,2-8.3,4.7s-2.8,6-3.7,9.2c10.2,22.7,19.5,45.5,29.8,68.2c0.5,0.9,0.7,1.8,0.7,2.8c-0.2,1-0.6,2-1.3,2.8
	c-5,8-4.8,18.2-4.3,27.6c0.5,9.5,1.2,19.4-3,27.9c-1.1,2.3-2.6,4.5-3.7,6.8c-2.6,5.3-3.5,22.1-2,27.8l187.3,5.4
	C269.6,419.9,287.5,285.1,287.5,285.1z"/>
<path id="eb41f72e-aba6-4a16-bf55-c7027d2f1a4b" class="st5" d="M54,331c-0.4,2.7-0.4,5.4-0.1,8.2l2.7,38.5
	c0.3,3.6,0.5,7.3,0.8,10.9c0.6,7,1.6,14,2.8,21c0.1,2.1,1.8,3.7,3.8,3.6c11.8,2.5,24,2.4,36.1,1.7c18.4-1,65.5-3,68.3-6.7
	s1.2-9.8-2.5-12.8S100,385,100,385c0.6-4.8,2.4-9.3,4.2-13.9c3.1-8.1,6-16.5,6.1-25.1s-3.2-17.8-10.3-22.8
	c-5.8-4.1-13.4-4.8-20.5-4.7c-5.2,0.1-14.1-1.1-18.9,0.9C56.8,321.1,54.7,327.3,54,331z"/>
<path id="b53ad979-99f4-4c6e-a0f8-957060c42096" class="st3" d="M69.6,262.4c-0.9,1-1.6,2.1-2.1,3.3c-7.5,17-12,35.2-13.2,53.8
	c0,0.9-0.2,1.8-0.6,2.6c-0.4,0.5-0.9,1-1.4,1.5c-1.8,2.2-1.6,5.4,0.6,7.3c0.1,0.1,0.2,0.1,0.3,0.2c1.5-2.9,5.2-3.8,8.5-4.1
	c15.7-1.2,31,6.1,46.8,5.5c-1.1-3.8-2.7-7.5-3.6-11.4c-4-17.3,6-36-0.1-52.6c-1.2-3.3-3.3-6.6-6.5-8.1c-1.3-0.5-2.7-0.9-4.2-1.1
	c-4-0.7-11.9-3.8-15.7-2.6c-1.4,0.5-2,1.8-3.2,2.6C73.5,260.5,71.1,260.9,69.6,262.4z"/>
<path id="a1197c30-bfd4-4098-bcf9-2468e7a33bf1" class="st5" d="M287.7,319.4c-4.7-2-13.7-0.8-18.9-0.9c-7.1-0.2-14.7,0.6-20.5,4.7
	c-7.1,5-10.4,14.1-10.3,22.8c0.1,8.7,3,17,6.1,25.1c1.7,4.6,3.6,9.1,4.2,13.9c0,0-62.1,7.4-65.9,10.4s-5.4,9.1-2.5,12.8
	s92.6,7.5,104.4,5c2.1,0.1,3.8-1.6,3.8-3.6c1.2-7,2.2-13.9,2.8-21c0.3-3.6,0.6-7.2,0.8-10.9l2.7-38.5c0.3-2.7,0.3-5.5-0.1-8.2
	C293.6,327.3,291.4,321.1,287.7,319.4z"/>
<path id="ebe46053-6aac-4aa7-8615-21a6fa79538d" class="st3" d="M273,259.3c-1.2-0.8-1.7-2.1-3.2-2.6c-3.8-1.2-11.8,1.8-15.7,2.6
	c-1.4,0.2-2.8,0.6-4.2,1.1c-3.2,1.5-5.3,4.7-6.5,8.1c-6.1,16.6,3.9,35.4-0.1,52.6c-0.9,3.9-2.5,7.6-3.6,11.4
	c15.7,0.6,31.1-6.8,46.8-5.5c3.3,0.3,7,1.2,8.5,4.1c0.1-0.1,0.2-0.1,0.3-0.2c2.2-1.8,2.5-5.1,0.6-7.3c-0.5-0.5-1-1-1.4-1.5
	c-0.4-0.8-0.6-1.7-0.6-2.6c-1.2-18.6-5.6-36.8-13.2-53.8c-0.5-1.2-1.2-2.4-2.1-3.3C277.1,260.9,274.8,260.5,273,259.3z"/>
<circle class="st7" cx="160.6" cy="401" r="14"/>
<circle class="st7" cx="191.6" cy="401" r="14"/>
<path class="st8" d="M278,432.5H85.7c-4.7,0-8.5-3.8-8.5-8.5V307.4c0-4.7,3.8-8.5,8.5-8.5H278c4.7,0,8.5,3.8,8.5,8.5v116.7
	C286.5,428.7,282.7,432.5,278,432.5z"/>
<circle id="e793da3b-cee2-4a15-ae11-6dab45a6c728" class="st9" cx="181.4" cy="365.7" r="5.6"/>
<path class="st10" d="M114.4,132.6c-0.6-2.4,1.6-6.3,2.2-10.6c0.3-2.7-0.4-2.5,0-6c0.1-1.3,0.4-3.5,1.4-6.2c0.8-2.1,1.1-2.1,1.6-3.8
	c0.4-1.5,0.4-2.4,0.5-5.1c0,0,0.1-1.3,0.3-4.9c0.3-4.5,3.1-8.4,5-11.1c4-5.7,8.8-9,11.4-10.8c1.9-1.3,7.2-4.8,15-7.2l0,0
	c0,0,10-3.4,17.6-3.8c0.2,0,0.5,0,0.8,0c0,0,6.8-0.2,12.5,0.3c8,0.7,17.6,5,23.8,7.7c9.4,4.2,13.2,7.1,14.9,8.4
	c2.5,2,4.4,3.6,6.3,6.3c4.1,5.9,4.7,12.6,5,15.8c0,0.4,0.1,1.9,0.4,4.2c0.1,0.7,0.2,2.7,0.4,4.4c0.6,5.5,0.8,5.5,1.2,9.4
	c0.4,4.2,0.1,4.3,0.6,5.8c0.7,2,1.5,2.9,1.3,4.5c-0.2,1.5-1,1.9-2,3.6c-2,3.3-1.7,6.7-1.6,8.2c0.2,2.9,1.2,3.3,1.2,6.5
	c0,1.8,0,3.1-1,4.3c-1.9,2.1-5.6,2-6,1.9c-0.9-0.1-2.6-0.3-7.2-3.3c-2.7-1.8-4.6-3.3-5-3.6c-5.4-4.3-11.1-6.7-15.9-8.8
	c-3.4-1.4-6.6-2.8-11.3-3.9c-7.4-1.7-13.7-1.6-17.3-1.3c-1.3,0.1-7.3,0.6-14.7,3c-3,1-7.6,2.5-12.5,5.6c-4.9,3.2-8.4,5.6-8.4,5.6
	c-0.6,0.5-2.6,1.8-5.5,3.1c-3.3,1.5-4.7,1.4-5.5,1.2c-1.7-0.4-2.8-1.4-3.3-1.9c-1.3-1.3-1.6-2.7-2.1-4.8s-0.8-3.5-0.5-5.4
	c0.2-1.3-0.2-2.7-0.2-4c0-0.1,0-0.5-0.3-0.7c-0.2-0.2-0.4-0.2-0.5-0.3c-0.8-0.2-1.4-1-1.8-1.4C115.2,134.1,114.7,133.5,114.4,132.6z
	"/>
<path class="st10" d="M176.1,60c-1.5,0-2.1,0.2-2.3,0.2c-0.7,0.2-1.2,0.4-1.5,0.6c-0.4,0.2-1,0.5-1.4,1c-0.2,0.2-1.1,1.3-0.8,2.5
	c0.4,1.2,2,1.7,3,2.1c2.7,0.9,5.1,0.1,5.5,0c0.9-0.3,2.4-0.7,3.2-1.9c0.2-0.3,0.8-1.2,0.4-2.1c-0.2-0.6-0.6-0.9-1-1.2
	c-1.1-0.8-2.3-1.1-2.8-1.1C177.9,60,177.3,60,176.1,60z"/>
<path class="st11" d="M126.6,88.1c0.2,0.1-0.7,1.4-1.2,3.6c-0.2,0.7-0.3,1.4-0.5,3.4c-0.3,3.5-0.4,6.2-0.4,6.2c-0.1,2.4,0,2.3,0,6.1
	c0,2.5,0,3.8-0.1,5.7c-0.1,2.3-0.3,3.6-0.6,6.1c-0.3,2.5-0.5,3.2-1,4c-0.2,0.3-0.6,0.9-1.3,2.1c-0.3,0.4-0.5,0.8-0.6,1.3
	s-0.1,1,0,1.2c0.1,0.8,0.2,0.8,0.1,1.1c-0.1,0.2-0.2,0.2-1.4,0.9c-1.6,0.9-0.8,0.4-1.4,0.7s-0.7,0.4-0.8,0.3c-0.2-0.1,0-0.8,0.2-1.8
	c0.3-1,0.4-2,0.6-3c0.3-1.2,0.4-1.8,0.5-2.6c0.2-1.4,0-1.7,0.1-3.5c0.1-1.2,0.2-2.2,0.5-4.1c0.3-1.7,0.4-2.5,0.6-3.4
	c0.1-0.4,0.4-1.3,1-3c0.7-2.1,0.7-2.2,0.9-2.6c0.3-1.2,0.4-2.1,0.6-3.2c0.2-1.8,0.1-1.9,0.3-3.9c0.1-0.7,0.2-2.3,0.6-4.3
	c0.2-1.2,0.4-2.1,0.7-3.1c0.4-1.4,0.7-2,0.9-2.4C125.6,89,126.4,88,126.6,88.1z"/>
<path class="st11" d="M229.7,99.9c0.3,0,0.6,1.2,0.7,2c0.3,1.6,0.1,2.6,0,3.7c-0.1,1.2,0.1,0.7,0.4,4.8c0.1,1.5,0.2,2.8,0.3,4.6
	c0.1,1.9,0,2,0.1,3c0.2,1.5,0.3,1.5,0.7,3.7c0.3,1.9,0.2,1.9,0.5,3.2c0.1,0.4,0.1,0.3,0.6,2.5c0,0,0.2,0.8,0.4,2
	c0.2,1.4,0.2,1.8,0,1.9c-0.1,0.1-0.3,0-0.7-0.2c-1.1-0.6-1.3-0.8-1.8-1.1c-1-0.5-1.5-0.4-1.8-0.9c0-0.1-0.1-0.1-0.1-0.7
	c0-1.3,0-1.5-0.1-1.9s-0.4-0.6-0.7-0.9c-0.4-0.3-1.7-1.6-2.3-2.6c-0.4-0.6-0.4-1.4-0.5-2.8c0-0.7,0-1,0.2-3.6c0.1-1.5,0.1-2,0.2-3.1
	c0.1-1.6,0.2-2.1,0.3-2.6c0.2-0.9,0.3-0.9,0.5-2.1c0.4-1.9,0.3-1.9,0.6-2.9c0.4-1.4,0.8-1.3,1.4-2.9
	C229.5,101.1,229.4,99.9,229.7,99.9z"/>
<path class="st11" d="M225.1,129.2c0.9-0.6,3.6,0.6,4.2,2.3c0.2,0.4,0.1,0.7,0,1.4c0,1.4,0.2,1.9,0.5,3.9c0.5,2.8,0.1,2.5,0.6,5.1
	c0.3,1.7,0.5,2.1,0.7,3.8c0.1,0.8,0.1,1.5,0.2,3c0,1.2,0,1.7-0.2,2.4c-0.2,0.5-0.5,1.3-1.2,1.7c-0.7,0.3-1.4,0.3-2.1,0.1
	c-2.5-0.5-4.4-1.5-5-1.9c-1.7-1-2.5-1.5-4.4-2.6c-2.5-1.5-2.4-1.4-5.7-3.3c-2.6-1.6-2.9-1.8-4.5-2.7c-1.5-0.8-2.6-1.4-3.9-2
	c-1.4-0.7-3.1-1.6-5.4-2.6c-1.6-0.7-2.6-1.1-4-1.7c-1.4-0.5-2.6-0.9-4.2-1.3c-1.5-0.4-2.5-0.7-3.9-1.1c-1-0.2-2.4-0.6-4.1-0.8
	c-1.5-0.2-2.6-0.3-4.5-0.4c-2.1-0.1-3.5-0.2-5.5-0.2c-3,0-5.3,0.3-6,0.4c-0.9,0.1-2,0.3-4.4,0.8s-3.1,0.6-3.7,0.8
	c-1.4,0.4-2.4,0.7-3.5,1.1c-1.6,0.6-2.7,1.1-4.6,2c-2.1,0.9-3.6,1.7-4,1.9c-2.2,1.1-3.3,1.6-4.6,2.4c-1.2,0.7-1.2,0.8-3.2,2.1
	c-1.6,1-1.7,1-2.6,1.6c-1.7,1.1-1.7,1.3-3.2,2.3c-1.4,0.9-2.5,1.5-3.4,1.9c-2,1-2.7,1.1-2.9,1.1c-0.7,0.1-2.1,0.3-3.2-0.3
	c-0.3-0.2-0.7-0.5-1.3-2c-0.2-0.6-0.6-1.7-0.9-4.1c-0.2-1.8-0.2-3.1-0.3-3.6c0-1.2,0.1-1.3,0-2.7c0-1.9,0-2.9-0.2-3.4
	c-0.1-0.4-0.5-1.8-0.3-2.9c0-0.1,0.1-0.2,0.2-0.4c0.3-0.6,1.2-1,1.6-0.9c0.2,0.1,0.5,0.4,0.6,1.9c0.1,1.4,0,2.4,0,2.7
	c0,0.7,0.2,2.3,0.7,5.4c0.1,0.9,0.3,1.8,0.6,3c0.5,1.7,0.9,2.2,1.4,2.5c0.2,0.1,1,0.7,2.1,0.6c1.2-0.1,1.7-0.9,3-2
	c0.2-0.2,1.3-0.9,3.5-2.2c2.4-1.5,3.5-2.2,4.9-3s1.2-0.5,4.2-2s3.2-1.7,4.8-2.4c1-0.4,0.7-0.3,3.9-1.5c2.6-1,2.9-1.2,4.1-1.6
	c0.3-0.1,0.8-0.3,3.8-1c3-0.8,4.5-1.1,5.2-1.3c1.3-0.2,0.9,0,4.9-0.4c2.4-0.2,2.9-0.3,4.1-0.3c0.7,0,1.6,0.1,3.8,0.4
	c3,0.4,5.2,0.9,5.8,1c1.8,0.4,4,0.8,6.9,1.6c1,0.3,3.2,0.9,5.9,1.9c1.3,0.5,0.9,0.4,4.2,1.6c3.6,1.4,4,1.5,5.3,2.1
	c1,0.5,0.7,0.4,3.6,1.9c1.3,0.7,2.4,1.2,4,2c2.8,1.4,2.6,1.3,3.7,1.8c2.4,1.2,3.6,1.8,3.8,1.9c0.8,0.5,1.3,0.9,2.2,1.1
	c0.3,0.1,1.6,0.3,2.3-0.3c0.6-0.4,0.6-1.2,0.6-1.9c0-2.2,0.1-3.3-0.1-4.6c-0.4-3.3,0-2.8-0.3-5C225.3,130.8,224.4,129.7,225.1,129.2
	z"/>
<path class="st11" d="M127.7,128.1c2.5-1.6,5.9-3.5,10.2-5.5c4.7-2.2,11.1-5,19.7-6.3c8-1.2,14.2-0.5,18.5,0
	c7.1,0.8,12.5,2.4,17.6,4c5.2,1.5,8.9,3,11.9,4.2c4.9,1.9,7.3,2.9,8.2,3.7c1.3,1.1,3,3,4.4,2.5c0,0,0.8-0.3,0.9-0.8
	c0.1-0.6-0.7-1.2-1.2-1.5c-3.5-2.4-5.6-2.9-5.6-2.9c-5.8-1.4-5.3-2.8-16.7-5.9c-2.3-0.6-4.1-1.1-7.8-1.9c-5.6-1.3-8.5-2-10.6-2.3
	c-3.8-0.5-6.8-0.4-12.8-0.2c-4.3,0.1-6.4,0.2-9,0.6c-2.5,0.4-5.2,1.2-10.5,2.9c-5.8,1.8-7.9,2.7-9.5,3.4c-1.9,0.9-3.8,1.9-5.7,3.2
	c-1,0.7-1.7,1.3-2.3,1.7"/>
<path class="st5" d="M122.6,162.8c-0.2,0.1-2.5,0.9-4.7-0.2c-2.4-1.2-3.1-3.8-3.6-5.6s-0.3-2.3-0.4-6.6c-0.2-5.6-0.5-6.5-0.2-9.6
	c0.2-1.9-0.2-3.4,0.9-4.7c0.1-0.1,1.1-1.4,2.7-1.6c0.8-0.1,1.5,0.2,1.7,0.3c1.6,0.6,2.4,2.1,2.7,2.7c0.5,1,0.3,1.2,1,4.1
	c0.4,1.6,0.6,2.7,1.1,4c0.4,1.1,0.5,1,1.2,2.6c0.8,1.8,0.7,2,1.3,3.5c0.8,1.8,1.1,2,1.2,2.9c0.2,1.2-0.2,2.3-0.5,3.1
	c-0.4,1.2-1,2-1.2,2.3C125.2,160.8,124.3,162.1,122.6,162.8z"/>
<path class="st5" d="M228.9,159.2c0.2,0.1,2.5,0.9,4.7-0.2c2.4-1.2,3.1-3.8,3.6-5.6s0.3-2.3,0.4-6.6c0.2-5.6,0.5-6.5,0.2-9.6
	c-0.2-1.9,0.2-3.4-0.9-4.7c-0.1-0.1-1.1-1.4-2.7-1.6c-0.8-0.1-1.5,0.2-1.7,0.3c-1.6,0.6-2.4,2.1-2.7,2.7c-0.5,1-0.3,1.2-1,4.1
	c-0.4,1.6-0.6,2.7-1.1,4c-0.4,1.1-0.5,1-1.2,2.6c-0.8,1.8-0.7,2-1.3,3.5c-0.8,1.8-1.1,2-1.2,2.9c-0.2,1.2,0.2,2.3,0.5,3.1
	c0.4,1.2,1,2,1.2,2.3C226.2,157.3,227.2,158.6,228.9,159.2z"/>
<polygon class="st12" points="366.7,432.5 0,431.1 0,450.1 366.7,450.1 "/>
<g>
	<polygon class="st13" points="83.2,397.9 87.9,397.9 92.3,418.9 97.1,397.9 101.6,397.9 94.2,425.8 90.2,425.8 	"/>
	<path class="st13" d="M112.7,397.9h-4l-7.9,27.4l4.6,0.5l1.6-5.6l7.4,0.1l1.3,5.6h5.1L112.7,397.9z M107.8,417.2l3-13.5l3.1,13.5
		H107.8z"/>
	<path class="st14" d="M134.1,411.8c5.3-0.5,5-6.5,5-6.5c0.9-10.5-15.3-7.5-15.3-7.5v27.9h5v-13.9l6.9,13.9h4.9L134.1,411.8z
		 M134.1,405.4c-0.3,5.2-5.2,4.5-5.2,4.5v-9C128.9,400.9,134.4,400.1,134.1,405.4z"/>
	<path class="st13" d="M164.2,397.7h-4l-7.9,27.4l4.6,0.5l1.6-5.6l7.4,0.1l1.3,5.6h5.1L164.2,397.7z M159.3,417l3-13.5l3.1,13.5
		H159.3z"/>
	<polygon class="st13" points="180.3,425.6 175.3,425.8 175.3,397.9 180,397.9 188.6,417.9 187.9,397.9 192.8,397.9 192.8,425.6 
		188.1,425.8 179.5,405 	"/>
	<polygon class="st14" points="206.3,425.8 201.3,425.8 201.3,400.8 195.8,400.8 195.8,397.9 211.9,397.7 211.9,400.8 206.4,400.8 	
		"/>
	<path class="st14" d="M146.8,393.5c0,0-1.6-2.5-3.1,0c0,0-1.9,1.9,0.9,4.7c0,0-0.6,0.5,0,0.8c0,0-1,0.9-0.2,1l0,0.9
		c0,0-0.8,0.5,0.8,0.9c0,0-0.5,0.5,0,1.2c0,0-0.8,0.3-0.6,1.8c0,0-1.3,1.7-0.8,7.4c0,0,0.4,9.6-0.2,10.3c0,0,3.1,0,2.3,2l-1.3,0.8
		c0,0,0,0.5,1.6,0.5l1.7-0.4l0.3-1.7c0,0,2.1,0.6,2.1-1.3c0,0,0.6-10.2-0.6-13.9c0,0,0.1-5.3-1-5.5c0,0,0.3-1.6-0.7-2.2
		c0,0,1.1-1,0.6-3c0,0-2.2-0.9-3.1-0.2c0,0-2.2-1.5-0.6-2.7c0,0,1.4-1.2,2.3-0.2c0,0-0.3-1.2-1.9-0.7c0,0-1.3,0.8-1.3,1.1
		c0,0-0.1-1.9,1.3-1.8C145.2,393.1,146.4,393,146.8,393.5z"/>
</g>
</svg>
